<svg width="1280" height="720" xmlns="http://www.w3.org/2000/svg" xmlns:xlink="http://www.w3.org/1999/xlink" overflow="hidden"><defs><clipPath id="clip0"><rect x="0" y="0" width="1280" height="720"/></clipPath></defs><g clip-path="url(#clip0)"><rect x="0" y="0" width="1280" height="720" fill="#FFFFFF" fill-opacity="0"/><path d="M433 419 556.101 419 556.101 581.294 554.101 579.294 665.202 579.294 665.202 583.294 552.101 583.294 552.101 421 554.101 423 433 423ZM663.202 575.294 675.202 581.294 663.202 587.294Z" fill="#4472C4"/><path d="M156 306.168C156 280.67 176.67 260 202.168 260L386.832 260C412.33 260 433 280.67 433 306.168L433 534.832C433 560.33 412.33 581 386.832 581L202.168 581C176.67 581 156 560.33 156 534.832Z" stroke="#ED7D31" stroke-width="4" stroke-miterlimit="8" fill="none" fill-rule="evenodd"/><text font-family="IBM Plex Sans,IBM Plex Sans_MSFontService,sans-serif" font-weight="400" font-size="32" transform="translate(263.606 295)">Class</text><path d="M195.555 184.743 241.233 241.259 238.122 243.773 192.445 187.257ZM243.087 237.189 245.963 250.294 233.754 244.732Z" fill="#4472C4"/><text font-family="IBM Plex Sans,IBM Plex Sans_MSFontService,sans-serif" font-weight="400" font-size="19" transform="translate(55.7529 142)">Think <tspan font-size="19" x="50.8333" y="0">of</tspan><tspan font-size="19" x="71.6667" y="0">a </tspan>class<tspan font-size="19" x="133" y="0">like a </tspan><tspan font-size="19" x="0" y="22">blueprint</tspan>/<tspan font-size="19" x="83.3333" y="22">outline</tspan><tspan font-size="19" x="145.833" y="22">of</tspan><tspan font-size="19" x="166.667" y="22">an </tspan>object. An <tspan font-size="19" x="0" y="44">„</tspan><tspan font-size="19" x="8.83334" y="44">abstract</tspan><tspan font-size="19" x="82.3333" y="44">type“.</tspan></text><path d="M0-2 123.101-2 123.101 160.294 121.101 158.294 232.202 158.294 232.202 162.294 119.101 162.294 119.101 0 121.101 2 0 2ZM230.202 154.294 242.202 160.294 230.202 166.294Z" fill="#4472C4" transform="matrix(1 0 0 -1 433 420.294)"/><path d="M675 197.501C675 180.103 689.103 166 706.501 166L836.499 166C853.897 166 868 180.103 868 197.501L868 323.499C868 340.897 853.897 355 836.499 355L706.501 355C689.103 355 675 340.897 675 323.499Z" stroke="#ED7D31" stroke-width="4" stroke-miterlimit="8" fill="none" fill-rule="evenodd"/><path d="M675 517.667C675 500.178 689.178 486 706.667 486L836.333 486C853.822 486 868 500.178 868 517.667L868 644.333C868 661.822 853.822 676 836.333 676L706.667 676C689.178 676 675 661.822 675 644.333Z" stroke="#ED7D31" stroke-width="4" stroke-miterlimit="8" fill="none" fill-rule="evenodd"/><text font-family="IBM Plex Sans,IBM Plex Sans_MSFontService,sans-serif" font-weight="400" font-size="24" transform="translate(733.037 195)">Object<tspan font-size="24" x="76.3333" y="0">1</tspan><tspan font-size="24" x="0" y="319">Object</tspan><tspan font-size="24" x="76.3333" y="319">2</tspan></text><rect x="178.5" y="320.5" width="236" height="100" stroke="#2F528F" stroke-width="1.33333" stroke-miterlimit="8" fill="#DAE3F3"/><rect x="178.5" y="444.5" width="236" height="101" stroke="#2F528F" stroke-width="1.33333" stroke-miterlimit="8" fill="#DAE3F3"/><text font-family="IBM Plex Sans,IBM Plex Sans_MSFontService,sans-serif" font-weight="400" font-size="21" transform="translate(203.716 376)">Placeholder<tspan font-size="21" x="119.333" y="0">for</tspan><tspan font-size="21" x="151" y="0">data</tspan><tspan font-size="21" x="50.6784" y="111">Methods </tspan><tspan font-size="15" x="16.0118" y="130">(</tspan><tspan font-size="15" x="20.8451" y="130">What</tspan><tspan font-size="15" x="58.6784" y="130">can</tspan><tspan font-size="15" x="85.6784" y="130">I do </tspan><tspan font-size="15" x="115.178" y="130">with</tspan><tspan font-size="15" x="147.178" y="130">the</tspan><tspan font-size="15" x="66.0118" y="148">object</tspan><tspan font-size="15" x="106.845" y="148">?)</tspan></text><rect x="691.5" y="212.5" width="164" height="54" stroke="#2F528F" stroke-width="1.33333" stroke-miterlimit="8" fill="#DAE3F3"/><text font-family="IBM Plex Sans,IBM Plex Sans_MSFontService,sans-serif" font-weight="400" font-size="21" transform="translate(747.936 243)">Data</text><rect x="691.5" y="282.5" width="164" height="54" stroke="#2F528F" stroke-width="1.33333" stroke-miterlimit="8" fill="#DAE3F3"/><text font-family="IBM Plex Sans,IBM Plex Sans_MSFontService,sans-serif" font-weight="400" font-size="21" transform="translate(733.037 315)">Methods</text><rect x="690.5" y="531.5" width="165" height="55" stroke="#2F528F" stroke-width="1.33333" stroke-miterlimit="8" fill="#DAE3F3"/><text font-family="IBM Plex Sans,IBM Plex Sans_MSFontService,sans-serif" font-weight="400" font-size="21" transform="translate(747.532 562)">Data</text><rect x="690.5" y="601.5" width="165" height="54" stroke="#2F528F" stroke-width="1.33333" stroke-miterlimit="8" fill="#DAE3F3"/><text font-family="IBM Plex Sans,IBM Plex Sans_MSFontService,sans-serif" font-weight="400" font-size="21" transform="translate(732.633 635)">Methods</text><path d="M1.42645-1.40187 71.1533 69.5476 68.3004 72.3513-1.42645 1.40187ZM72.6043 65.3174 76.7362 78.0817 64.0456 73.7286Z" fill="#4472C4" transform="matrix(1 0 0 -1 212 628.082)"/><text font-family="IBM Plex Sans,IBM Plex Sans_MSFontService,sans-serif" font-weight="400" font-size="19" transform="translate(9.8169 650)">Functions<tspan font-size="19" x="87" y="0">that</tspan><tspan font-size="19" x="125" y="0">are</tspan><tspan font-size="19" x="156.333" y="0">specialized</tspan><tspan font-size="19" x="254.167" y="0">to</tspan><tspan font-size="19" x="275.5" y="0">carry out </tspan><tspan font-size="19" x="0" y="22">calculations</tspan><tspan font-size="19" x="105.167" y="22">on </tspan><tspan font-size="19" x="130.667" y="22">objects</tspan><tspan font-size="19" x="196.167" y="22">of</tspan><tspan font-size="19" x="217" y="22">the</tspan><tspan font-size="19" x="248.667" y="22">specific</tspan><tspan font-size="19" x="317.167" y="22">class</tspan>.</text></g></svg>