<?xml version="1.0" standalone="no"?><!DOCTYPE svg PUBLIC "-//W3C//DTD SVG 1.1//EN" "http://www.w3.org/Graphics/SVG/1.1/DTD/svg11.dtd"><svg xmlns:xlink="http://www.w3.org/1999/xlink" version="1.1" style="font-family:open sans;font-size:12px;" xmlns="http://www.w3.org/2000/svg" width="1040" height="410"><desc>Created with Highcharts 4.1.5</desc><defs><clipPath id="highcharts-63"><rect x="0" y="0" width="847" height="210"></rect></clipPath></defs><rect x="0" y="0" width="1040" height="410" strokeWidth="0" fill="#FFFFFF" class=" highcharts-background"></rect><g class="highcharts-grid" ></g><g class="highcharts-grid" ></g><g class="highcharts-grid" ><path fill="none" d="M 114 339.5 L 961 339.5" stroke="#D8D8D8" stroke-width="1"  opacity="1"></path><path fill="none" d="M 114 269.5 L 961 269.5" stroke="#D8D8D8" stroke-width="1"  opacity="1"></path><path fill="none" d="M 114 199.5 L 961 199.5" stroke="#D8D8D8" stroke-width="1"  opacity="1"></path><path fill="none" d="M 114 128.5 L 961 128.5" stroke="#D8D8D8" stroke-width="1"  opacity="1"></path></g><g class="highcharts-grid" ><path fill="none" d="M 114 339.5 L 961 339.5" stroke="#D8D8D8" stroke-width="1"  opacity="1"></path><path fill="none" d="M 114 269.5 L 961 269.5" stroke="#D8D8D8" stroke-width="1"  opacity="1"></path><path fill="none" d="M 114 199.5 L 961 199.5" stroke="#D8D8D8" stroke-width="1"  opacity="1"></path><path fill="none" d="M 114 128.5 L 961 128.5" stroke="#D8D8D8" stroke-width="1"  opacity="1"></path></g><g class="highcharts-axis" ><path fill="none" d="M 190.5 339 L 190.5 349" stroke="#C0D0E0" stroke-width="1" opacity="1"></path><path fill="none" d="M 267.5 339 L 267.5 349" stroke="#C0D0E0" stroke-width="1" opacity="1"></path><path fill="none" d="M 344.5 339 L 344.5 349" stroke="#C0D0E0" stroke-width="1" opacity="1"></path><path fill="none" d="M 421.5 339 L 421.5 349" stroke="#C0D0E0" stroke-width="1" opacity="1"></path><path fill="none" d="M 498.5 339 L 498.5 349" stroke="#C0D0E0" stroke-width="1" opacity="1"></path><path fill="none" d="M 575.5 339 L 575.5 349" stroke="#C0D0E0" stroke-width="1" opacity="1"></path><path fill="none" d="M 652.5 339 L 652.5 349" stroke="#C0D0E0" stroke-width="1" opacity="1"></path><path fill="none" d="M 729.5 339 L 729.5 349" stroke="#C0D0E0" stroke-width="1" opacity="1"></path><path fill="none" d="M 806.5 339 L 806.5 349" stroke="#C0D0E0" stroke-width="1" opacity="1"></path><path fill="none" d="M 883.5 339 L 883.5 349" stroke="#C0D0E0" stroke-width="1" opacity="1"></path><path fill="none" d="M 961.5 339 L 961.5 349" stroke="#C0D0E0" stroke-width="1" opacity="1"></path><path fill="none" d="M 113.5 339 L 113.5 349" stroke="#C0D0E0" stroke-width="1" opacity="1"></path><path fill="none" d="M 114 339.5 L 961 339.5" stroke="#C0D0E0" stroke-width="1"  visibility="visible"></path></g><g class="highcharts-axis" ><path fill="none" d="M 190.5 129 L 190.5 119" stroke="#C0D0E0" stroke-width="1" opacity="1"></path><path fill="none" d="M 267.5 129 L 267.5 119" stroke="#C0D0E0" stroke-width="1" opacity="1"></path><path fill="none" d="M 344.5 129 L 344.5 119" stroke="#C0D0E0" stroke-width="1" opacity="1"></path><path fill="none" d="M 421.5 129 L 421.5 119" stroke="#C0D0E0" stroke-width="1" opacity="1"></path><path fill="none" d="M 498.5 129 L 498.5 119" stroke="#C0D0E0" stroke-width="1" opacity="1"></path><path fill="none" d="M 575.5 129 L 575.5 119" stroke="#C0D0E0" stroke-width="1" opacity="1"></path><path fill="none" d="M 652.5 129 L 652.5 119" stroke="#C0D0E0" stroke-width="1" opacity="1"></path><path fill="none" d="M 729.5 129 L 729.5 119" stroke="#C0D0E0" stroke-width="1" opacity="1"></path><path fill="none" d="M 806.5 129 L 806.5 119" stroke="#C0D0E0" stroke-width="1" opacity="1"></path><path fill="none" d="M 883.5 129 L 883.5 119" stroke="#C0D0E0" stroke-width="1" opacity="1"></path><path fill="none" d="M 961.5 129 L 961.5 119" stroke="#C0D0E0" stroke-width="1" opacity="1"></path><path fill="none" d="M 113.5 129 L 113.5 119" stroke="#C0D0E0" stroke-width="1" opacity="1"></path><path fill="none" d="M 114 128.5 L 961 128.5" stroke="#C0D0E0" stroke-width="1"  visibility="visible"></path></g><g class="highcharts-axis" ><text x="1016.8500003814697"  text-anchor="middle" transform="translate(0,0) rotate(90 1016.8500003814697 234)" class=" highcharts-yaxis-title" style="color:#000000;fill:#000000;" visibility="visible" y="234"><tspan>Nicholas Cage</tspan></text></g><g class="highcharts-axis" ><text x="23.300003051757812"  text-anchor="middle" transform="translate(0,0) rotate(270 23.300003051757812 234)" class=" highcharts-yaxis-title" style="color:#ba0f27;fill:#ba0f27;" visibility="visible" y="234"><tspan>Swimming pool drownings</tspan></text></g><g class="highcharts-series-group" ><g class="highcharts-series" visibility="visible"  transform="translate(114,129) scale(1 1)" clip-path="url(#highcharts-63)"><path fill="none" d="M 38.5 140 C 38.5 140 84.7 140 115.5 140 C 146.3 140 161.7 140 192.5 140 C 223.3 140 238.7 105 269.5 105 C 300.3 105 315.7 175 346.5 175 C 377.3 175 392.7 175 423.5 175 C 454.3 175 469.7 154 500.5 140 C 531.3 126.00000000000001 546.7 119 577.5 105 C 608.3 91 623.7 70 654.5 70 C 685.3 70 700.7 175 731.5 175 C 762.3 175 808.5 70 808.5 70" stroke="#000000" stroke-width="2"  stroke-linejoin="round" stroke-linecap="round"></path></g><g class="highcharts-markers" visibility="visible"  transform="translate(114,129) scale(1 1)" clip-path="none"><path fill="#000000" d="M 808 66 C 813.328 66 813.328 74 808 74 C 802.672 74 802.672 66 808 66 Z"></path><path fill="#000000" d="M 731 171 C 736.328 171 736.328 179 731 179 C 725.672 179 725.672 171 731 171 Z"></path><path fill="#000000" d="M 654 66 C 659.328 66 659.328 74 654 74 C 648.672 74 648.672 66 654 66 Z"></path><path fill="#000000" d="M 577 101 C 582.328 101 582.328 109 577 109 C 571.672 109 571.672 101 577 101 Z"></path><path fill="#000000" d="M 500 136 C 505.328 136 505.328 144 500 144 C 494.672 144 494.672 136 500 136 Z"></path><path fill="#000000" d="M 423 171 C 428.328 171 428.328 179 423 179 C 417.672 179 417.672 171 423 171 Z"></path><path fill="#000000" d="M 346 171 C 351.328 171 351.328 179 346 179 C 340.672 179 340.672 171 346 171 Z"></path><path fill="#000000" d="M 269 101 C 274.328 101 274.328 109 269 109 C 263.672 109 263.672 101 269 101 Z"></path><path fill="#000000" d="M 192 136 C 197.328 136 197.328 144 192 144 C 186.672 144 186.672 136 192 136 Z"></path><path fill="#000000" d="M 115 136 C 120.328 136 120.328 144 115 144 C 109.672 144 109.672 136 115 136 Z"></path><path fill="#000000" d="M 38 136 C 43.328 136 43.328 144 38 144 C 32.672 144 32.672 136 38 136 Z"></path></g><g class="highcharts-series" visibility="visible"  transform="translate(114,129) scale(1 1)" clip-path="url(#highcharts-63)"><path fill="none" d="M 38.5 108.5 C 38.5 108.5 84.7 133 115.5 133 C 146.3 133 161.7 133 192.5 133 C 223.3 133 238.7 135.1 269.5 147 C 300.3 158.89999999999998 315.7 192.5 346.5 192.5 C 377.3 192.5 392.7 161 423.5 157.5 C 454.3 154 469.7 156.10000000000002 500.5 154 C 531.3 151.9 546.7 154 577.5 147 C 608.3 140 623.7 59.5 654.5 59.5 C 685.3 59.5 700.7 161 731.5 161 C 762.3 161 808.5 133 808.5 133" stroke="#ba0f27" stroke-width="2"  stroke-linejoin="round" stroke-linecap="round"></path></g><g class="highcharts-markers" visibility="visible"  transform="translate(114,129) scale(1 1)" clip-path="none"><path fill="#ba0f27" d="M 808 129 L 812 133 808 137 804 133 Z"></path><path fill="#ba0f27" d="M 731 157 L 735 161 731 165 727 161 Z"></path><path fill="#ba0f27" d="M 654 55.5 L 658 59.5 654 63.5 650 59.5 Z"></path><path fill="#ba0f27" d="M 577 143 L 581 147 577 151 573 147 Z"></path><path fill="#ba0f27" d="M 500 150 L 504 154 500 158 496 154 Z"></path><path fill="#ba0f27" d="M 423 153.5 L 427 157.5 423 161.5 419 157.5 Z"></path><path fill="#ba0f27" d="M 346 188.5 L 350 192.5 346 196.5 342 192.5 Z"></path><path fill="#ba0f27" d="M 269 143 L 273 147 269 151 265 147 Z"></path><path fill="#ba0f27" d="M 192 129 L 196 133 192 137 188 133 Z"></path><path fill="#ba0f27" d="M 115 129 L 119 133 115 137 111 133 Z"></path><path fill="#ba0f27" d="M 38 104.5 L 42 108.5 38 112.5 34 108.5 Z"></path></g></g><text x="520" text-anchor="middle" class="highcharts-title"  style="color:#777;font-size:18px;fill:#777;width:976px;" y="24"><tspan style="fill:#ba0f27;font-size:24px;font-weight:bold;font-family: 'lora'">Number of people who drowned by falling into a pool</tspan><tspan style="font-family: 'lora'" x="520" dy="21"> correlates with </tspan><tspan style="fill:#000000;font-size:24px;font-weight:bold;font-family: 'lora'" x="520" dy="29">Films Nicolas Cage appeared in</tspan></text><g class="highcharts-legend"  transform="translate(376,371)"><g ><g><g class="highcharts-legend-item"  transform="translate(8,3)"><path fill="none" d="M 0 11 L 16 11" stroke="#000000" stroke-width="2"></path><path fill="#000000" d="M 8 7 C 13.328 7 13.328 15 8 15 C 2.6719999999999997 15 2.6719999999999997 7 8 7 Z"></path><text x="21" style="color:#333333;font-size:12px;font-weight:bold;cursor:pointer;fill:#333333;" text-anchor="start"  y="15"><tspan>Nicholas Cage</tspan></text></g><g class="highcharts-legend-item"  transform="translate(122,3)"><path fill="none" d="M 0 11 L 16 11" stroke="#ba0f27" stroke-width="2"></path><path fill="#ba0f27" d="M 8 7 L 12 11 8 15 4 11 Z"></path><text x="21" y="15" style="color:#333333;font-size:12px;font-weight:bold;cursor:pointer;fill:#333333;" text-anchor="start" ><tspan>Swimming pool drownings</tspan></text></g></g></g></g><g class="highcharts-axis-labels highcharts-xaxis-labels" ><text x="152.5" style="color:#000000;cursor:default;font-size:11px;fill:#000000;width:77;text-overflow:ellipsis;" text-anchor="middle" transform="translate(0,0)" y="358" opacity="1"><tspan>1999</tspan></text><text x="229.5" style="color:#000000;cursor:default;font-size:11px;fill:#000000;width:77;text-overflow:ellipsis;" text-anchor="middle" transform="translate(0,0)" y="358" opacity="1"><tspan>2000</tspan></text><text x="306.5" style="color:#000000;cursor:default;font-size:11px;fill:#000000;width:77;text-overflow:ellipsis;" text-anchor="middle" transform="translate(0,0)" y="358" opacity="1"><tspan>2001</tspan></text><text x="383.5" style="color:#000000;cursor:default;font-size:11px;fill:#000000;width:77;text-overflow:ellipsis;" text-anchor="middle" transform="translate(0,0)" y="358" opacity="1"><tspan>2002</tspan></text><text x="460.5" style="color:#000000;cursor:default;font-size:11px;fill:#000000;width:77;text-overflow:ellipsis;" text-anchor="middle" transform="translate(0,0)" y="358" opacity="1"><tspan>2003</tspan></text><text x="537.5" style="color:#000000;cursor:default;font-size:11px;fill:#000000;width:77;text-overflow:ellipsis;" text-anchor="middle" transform="translate(0,0)" y="358" opacity="1"><tspan>2004</tspan></text><text x="614.5" style="color:#000000;cursor:default;font-size:11px;fill:#000000;width:77;text-overflow:ellipsis;" text-anchor="middle" transform="translate(0,0)" y="358" opacity="1"><tspan>2005</tspan></text><text x="691.5" style="color:#000000;cursor:default;font-size:11px;fill:#000000;width:77;text-overflow:ellipsis;" text-anchor="middle" transform="translate(0,0)" y="358" opacity="1"><tspan>2006</tspan></text><text x="768.5" style="color:#000000;cursor:default;font-size:11px;fill:#000000;width:77;text-overflow:ellipsis;" text-anchor="middle" transform="translate(0,0)" y="358" opacity="1"><tspan>2007</tspan></text><text x="845.5" style="color:#000000;cursor:default;font-size:11px;fill:#000000;width:77;text-overflow:ellipsis;" text-anchor="middle" transform="translate(0,0)" y="358" opacity="1"><tspan>2008</tspan></text><text x="922.5" style="color:#000000;cursor:default;font-size:11px;fill:#000000;width:77;text-overflow:ellipsis;" text-anchor="middle" transform="translate(0,0)" y="358" opacity="1"><tspan>2009</tspan></text></g><g class="highcharts-axis-labels highcharts-xaxis-labels" ><text x="152.5" style="color:#ba0f27;cursor:default;font-size:11px;fill:#ba0f27;width:77;text-overflow:ellipsis;" text-anchor="middle" transform="translate(0,0)" y="114" opacity="1"><tspan>1999</tspan></text><text x="229.5" style="color:#ba0f27;cursor:default;font-size:11px;fill:#ba0f27;width:77;text-overflow:ellipsis;" text-anchor="middle" transform="translate(0,0)" y="114" opacity="1"><tspan>2000</tspan></text><text x="306.5" style="color:#ba0f27;cursor:default;font-size:11px;fill:#ba0f27;width:77;text-overflow:ellipsis;" text-anchor="middle" transform="translate(0,0)" y="114" opacity="1"><tspan>2001</tspan></text><text x="383.5" style="color:#ba0f27;cursor:default;font-size:11px;fill:#ba0f27;width:77;text-overflow:ellipsis;" text-anchor="middle" transform="translate(0,0)" y="114" opacity="1"><tspan>2002</tspan></text><text x="460.5" style="color:#ba0f27;cursor:default;font-size:11px;fill:#ba0f27;width:77;text-overflow:ellipsis;" text-anchor="middle" transform="translate(0,0)" y="114" opacity="1"><tspan>2003</tspan></text><text x="537.5" style="color:#ba0f27;cursor:default;font-size:11px;fill:#ba0f27;width:77;text-overflow:ellipsis;" text-anchor="middle" transform="translate(0,0)" y="114" opacity="1"><tspan>2004</tspan></text><text x="614.5" style="color:#ba0f27;cursor:default;font-size:11px;fill:#ba0f27;width:77;text-overflow:ellipsis;" text-anchor="middle" transform="translate(0,0)" y="114" opacity="1"><tspan>2005</tspan></text><text x="691.5" style="color:#ba0f27;cursor:default;font-size:11px;fill:#ba0f27;width:77;text-overflow:ellipsis;" text-anchor="middle" transform="translate(0,0)" y="114" opacity="1"><tspan>2006</tspan></text><text x="768.5" style="color:#ba0f27;cursor:default;font-size:11px;fill:#ba0f27;width:77;text-overflow:ellipsis;" text-anchor="middle" transform="translate(0,0)" y="114" opacity="1"><tspan>2007</tspan></text><text x="845.5" style="color:#ba0f27;cursor:default;font-size:11px;fill:#ba0f27;width:77;text-overflow:ellipsis;" text-anchor="middle" transform="translate(0,0)" y="114" opacity="1"><tspan>2008</tspan></text><text x="922.5" style="color:#ba0f27;cursor:default;font-size:11px;fill:#ba0f27;width:77;text-overflow:ellipsis;" text-anchor="middle" transform="translate(0,0)" y="114" opacity="1"><tspan>2009</tspan></text></g><g class="highcharts-axis-labels highcharts-yaxis-labels" ><text x="976" style="color:#000000;cursor:default;font-size:11px;fill:#000000;width:333px;text-overflow:clip;" text-anchor="start" transform="translate(0,0)" y="344" opacity="1"><tspan>0 films</tspan></text><text x="976" style="color:#000000;cursor:default;font-size:11px;fill:#000000;width:333px;text-overflow:clip;" text-anchor="start" transform="translate(0,0)" y="274" opacity="1"><tspan>2 films</tspan></text><text x="976" style="color:#000000;cursor:default;font-size:11px;fill:#000000;width:333px;text-overflow:clip;" text-anchor="start" transform="translate(0,0)" y="204" opacity="1"><tspan>4 films</tspan></text><text x="976" style="color:#000000;cursor:default;font-size:11px;fill:#000000;width:333px;text-overflow:clip;" text-anchor="start" transform="translate(0,0)" y="134" opacity="1"><tspan>6 films</tspan></text></g><g class="highcharts-axis-labels highcharts-yaxis-labels" ><text x="99" style="color:#ba0f27;cursor:default;font-size:11px;fill:#ba0f27;width:333px;text-overflow:clip;" text-anchor="end" transform="translate(0,0)" y="344" opacity="1"><tspan>80 drownings</tspan></text><text x="99" style="color:#ba0f27;cursor:default;font-size:11px;fill:#ba0f27;width:333px;text-overflow:clip;" text-anchor="end" transform="translate(0,0)" y="274" opacity="1"><tspan>100 drownings</tspan></text><text x="99" style="color:#ba0f27;cursor:default;font-size:11px;fill:#ba0f27;width:333px;text-overflow:clip;" text-anchor="end" transform="translate(0,0)" y="204" opacity="1"><tspan>120 drownings</tspan></text><text x="99" style="color:#ba0f27;cursor:default;font-size:11px;fill:#ba0f27;width:333px;text-overflow:clip;" text-anchor="end" transform="translate(0,0)" y="134" opacity="1"><tspan>140 drownings</tspan></text></g><g class="highcharts-tooltip"  style="cursor:default;padding:0;white-space:nowrap;" transform="translate(0,-9999)"><path fill="none" d="M 3 0 L 13 0 C 16 0 16 0 16 3 L 16 13 C 16 16 16 16 13 16 L 3 16 C 0 16 0 16 0 13 L 0 3 C 0 0 0 0 3 0"  stroke="black" stroke-opacity="0.049999999999999996" stroke-width="5" transform="translate(1, 1)"></path><path fill="none" d="M 3 0 L 13 0 C 16 0 16 0 16 3 L 16 13 C 16 16 16 16 13 16 L 3 16 C 0 16 0 16 0 13 L 0 3 C 0 0 0 0 3 0"  stroke="black" stroke-opacity="0.09999999999999999" stroke-width="3" transform="translate(1, 1)"></path><path fill="none" d="M 3 0 L 13 0 C 16 0 16 0 16 3 L 16 13 C 16 16 16 16 13 16 L 3 16 C 0 16 0 16 0 13 L 0 3 C 0 0 0 0 3 0"  stroke="black" stroke-opacity="0.15" stroke-width="1" transform="translate(1, 1)"></path><path fill="rgb(249, 249, 249)" fill-opacity=" .85" d="M 3 0 L 13 0 C 16 0 16 0 16 3 L 16 13 C 16 16 16 16 13 16 L 3 16 C 0 16 0 16 0 13 L 0 3 C 0 0 0 0 3 0"></path><text x="8"  style="font-size:12px;color:#333333;fill:#333333;" transform="translate(0,20)"></text></g><text x="1030" text-anchor="end"  style="cursor:pointer;color:#909090;font-size:9px;fill:#909090;" y="405">tylervigen.com</text></svg>